<?xml version='1.0' encoding='ASCII' standalone='yes'?>
<svg xmlns="http://www.w3.org/2000/svg" xmlns:xlink="http://www.w3.org/1999/xlink" version="1.1" width="250mm" height="140mm" viewBox="0 0 250 140">
  <g fill="blue" transform="translate(20, 20) scale(1 1) "/>
  <g fill="blue" transform="translate(19.9, 20) scale(1 1) "><path d="M 0,0 L 25,0 25,100 0,100 Z"/>
</g>
  <g fill="blue" transform="translate(44.8, 20) scale(1 1) "/>
  <g fill="blue" transform="translate(44.699999999999996, 20) scale(1 1) "><path d="M 0,0 L 25,0 25,100 0,0 Z"/>
</g>
  <g fill="blue" transform="translate(69.6, 20) scale(1 1) "><path d="M 0,0 L 0,100 25,100 0,0 Z"/>
  <path d="M 30,0 L 30,100 5,100 30,0 Z"/>
</g>
  <g fill="blue" transform="translate(99.5, 20) scale(1 1) "><path d="M 25,0 L 0,0 0,100 25,0 Z"/>
</g>
  <g fill="blue" transform="translate(124.4, 20) scale(1 1) "/>
  <g fill="blue" transform="translate(124.30000000000001, 20) scale(1 1) "><path d="M 0,0 L 25,0 25,100 0,100 Z"/>
</g>
  <g fill="blue" transform="translate(149.20000000000002, 20) scale(1 1) "/>
  <g fill="blue" transform="translate(149.10000000000002, 20) scale(1 1) "><path d="M 0,0 L 25,0 25,100 0,0 Z"/>
</g>
  <g fill="blue" transform="translate(174.00000000000003, 20) scale(1 1) "><path d="M 0,0 L 0,100 25,100 0,0 Z"/>
  <path d="M 30,0 L 30,100 5,100 30,0 Z"/>
</g>
  <g fill="blue" transform="translate(203.90000000000003, 20) scale(1 1) "><path d="M 25,0 L 0,0 0,100 25,0 Z"/>
</g>
</svg>
